<?xml version="1.0" encoding="UTF-8" standalone="no"?>
<!DOCTYPE svg PUBLIC "-//W3C//DTD SVG 1.1//EN" "http://www.w3.org/Graphics/SVG/1.1/DTD/svg11.dtd">
<svg version="1.1" xmlns="http://www.w3.org/2000/svg" xmlns:xlink="http://www.w3.org/1999/xlink" preserveAspectRatio="xMidYMid meet" viewBox="152.90944056022835 544.1289809526185 28.102835732764817 27.726763118494773" width="26" height="25.59"><defs><path d="M159.79 568.72C159.24 568.48 158.9 567.93 158.9 567.32C158.9 566.97 158.9 564.15 158.9 563.8C156.03 563.21 153.91 560.62 153.91 557.64C153.91 557.02 153.91 552.04 153.91 551.42C153.91 547.97 156.71 545.13 160.2 545.13C161.35 545.13 170.57 545.13 171.72 545.13C175.17 545.13 178.01 547.93 178.01 551.42C178.01 552.05 178.01 557.05 178.01 557.68C178.01 561.13 175.21 563.97 171.72 563.97C171.25 563.97 167.44 563.97 166.97 563.97C166.8 563.97 166.59 564.04 166.46 564.14C165.95 564.57 161.93 568.05 161.43 568.48C161.16 568.75 160.82 568.86 160.44 568.86C160.23 568.86 159.99 568.82 159.79 568.72ZM155.62 551.42C155.62 552.05 155.62 557.05 155.62 557.68C155.62 559.97 157.33 561.92 159.58 562.19C160.17 562.26 160.61 562.77 160.61 563.35C160.61 563.59 160.61 564.77 160.61 566.91C163.44 564.45 165.01 563.08 165.33 562.8C165.77 562.43 166.35 562.19 166.94 562.19C167.41 562.19 171.21 562.19 171.69 562.19C174.22 562.19 176.27 560.14 176.27 557.61C176.27 556.99 176.27 552.04 176.27 551.42C176.27 548.89 174.22 546.84 171.69 546.84C170.92 546.84 167.09 546.84 160.2 546.84C157.15 548.21 155.62 549.73 155.62 551.42Z" id="aaK3Lfs7G"></path></defs><g><g><use xlink:href="#aaK3Lfs7G" opacity="1" fill="#a7a7a7" fill-opacity="1"></use><g><use xlink:href="#aaK3Lfs7G" opacity="1" fill-opacity="0" stroke="#000000" stroke-width="0" stroke-opacity="0"></use></g></g></g></svg>