<?xml version="1.0" encoding="UTF-8" standalone="no"?>
<!DOCTYPE svg PUBLIC "-//W3C//DTD SVG 1.1//EN" "http://www.w3.org/Graphics/SVG/1.1/DTD/svg11.dtd">
<svg version="1.1" xmlns="http://www.w3.org/2000/svg" xmlns:xlink="http://www.w3.org/1999/xlink" preserveAspectRatio="xMidYMid meet" viewBox="344.34658534169506 217.20596800642795 35.22480259319343 41.91583236334475" width="31.22" height="37.92"><defs><path d="M345.52 247.42C344.38 241.04 349.13 237 349.13 230.16C350.6 231.62 351.33 233.91 351.33 236.04C355.47 231.86 357.54 225.92 357.54 218.21C363.27 221.28 366.88 226.09 368.36 232.66C369.19 231.17 369.35 229.17 368.82 226.64C376.15 229.45 382.6 250.51 366.86 256.12C369.57 246.78 367.66 239.74 361.13 235.02C361.96 238.96 361.17 242.75 358.75 246.38C358.56 243.52 358.05 241.3 357.23 239.73C357.23 241.57 356.5 243.41 355.05 245.23C354.86 245.46 354.68 245.69 354.5 245.93C354.5 245.93 354.5 245.93 354.5 245.93C352.16 248.88 352.02 253.01 354.15 256.12C349.15 254.51 346.28 251.61 345.52 247.42Z" id="dc1N8YQB3"></path></defs><g><g><use xlink:href="#dc1N8YQB3" opacity="1" fill="#ff7a29" fill-opacity="1"></use><g><use xlink:href="#dc1N8YQB3" opacity="1" fill-opacity="0" stroke="#000000" stroke-width="1" stroke-opacity="0"></use></g></g></g></svg>