<?xml version="1.0" encoding="UTF-8" standalone="no"?>
<!DOCTYPE svg PUBLIC "-//W3C//DTD SVG 1.1//EN" "http://www.w3.org/Graphics/SVG/1.1/DTD/svg11.dtd">
<svg version="1.1" xmlns="http://www.w3.org/2000/svg" xmlns:xlink="http://www.w3.org/1999/xlink" preserveAspectRatio="xMidYMid meet" viewBox="75.25000000000003 104.83332697550458 376.4 214.41666666666657" width="372.4" height="210.42"><defs><path d="M443.25 117.32C439.86 113.79 435.15 111.83 430.25 111.92C404.69 111.92 200.21 111.92 174.65 111.92C169.65 111.92 165.35 113.72 161.75 117.32C158.23 120.65 156.24 125.28 156.25 130.12C156.25 135.12 158.05 139.42 161.65 143.02C174.45 155.81 276.85 258.13 289.65 270.92C293.25 274.52 297.45 276.32 302.45 276.32C307.45 276.32 311.65 274.52 315.25 270.92C328.05 258.12 430.45 155.72 443.25 142.92C446.75 139.42 448.65 135.12 448.65 130.12C448.65 125.12 446.75 120.92 443.15 117.32C443.17 117.32 443.23 117.32 443.25 117.32Z" id="i2db3KLRfw"></path><path d="M76.25 105.83L153.33 105.83L153.33 316.25L76.25 316.25L76.25 105.83Z" id="boqOqb2Uf"></path></defs><g><g><use xlink:href="#i2db3KLRfw" opacity="1" fill="#bababa" fill-opacity="1"></use><g><use xlink:href="#i2db3KLRfw" opacity="1" fill-opacity="0" stroke="#000000" stroke-width="1" stroke-opacity="0"></use></g></g><g></g></g></svg>