<?xml version="1.0" encoding="UTF-8" standalone="no"?>
<!DOCTYPE svg PUBLIC "-//W3C//DTD SVG 1.1//EN" "http://www.w3.org/Graphics/SVG/1.1/DTD/svg11.dtd">
<svg version="1.1" xmlns="http://www.w3.org/2000/svg" xmlns:xlink="http://www.w3.org/1999/xlink" preserveAspectRatio="xMidYMid meet" viewBox="346.34284181821323 257.09031384062 30.948023864232994 37.27325357540252" width="26.95" height="33.27"><defs><path d="M360.82 270.56C365.34 270.56 369.16 273.9 369.77 278.38C370.12 280.98 370.13 281.03 370.48 283.65C371.03 287.73 367.86 291.36 363.74 291.36C361.05 291.36 360.76 291.36 358.06 291.36C353.93 291.36 350.74 287.74 351.26 283.64C351.59 281.02 351.6 280.98 351.93 278.39C352.5 273.91 356.3 270.56 360.82 270.56C362.4 270.56 359.24 270.56 360.82 270.56Z" id="dUElEyToO"></path><path d="M347.5 283.3C346.51 277.8 350.61 274.31 350.61 268.41C351.87 269.66 352.51 271.64 352.51 273.49C356.08 269.88 357.86 264.74 357.86 258.09C362.81 260.74 365.92 264.9 367.2 270.56C367.92 269.28 368.06 267.55 367.6 265.37C373.93 267.79 379.49 285.97 365.91 290.81C368.25 282.75 366.6 276.68 360.96 272.6C361.68 276 361 279.27 358.91 282.4C358.74 279.94 358.31 278.02 357.6 276.67C357.6 278.26 356.97 279.84 355.72 281.42C355.56 281.61 355.4 281.81 355.24 282.01C355.24 282.01 355.24 282.01 355.24 282.01C353.22 284.56 353.1 288.13 354.94 290.81C350.62 289.42 348.14 286.92 347.5 283.3Z" id="i6M5sSdC"></path></defs><g><g><use xlink:href="#dUElEyToO" opacity="1" fill="#ffffff" fill-opacity="1"></use></g><g><use xlink:href="#i6M5sSdC" opacity="1" fill="#aaaaaa" fill-opacity="1"></use><g><use xlink:href="#i6M5sSdC" opacity="1" fill-opacity="0" stroke="#000000" stroke-width="1" stroke-opacity="0"></use></g></g></g></svg>