<?xml version="1.0" encoding="UTF-8" standalone="no"?>
<!DOCTYPE svg PUBLIC "-//W3C//DTD SVG 1.1//EN" "http://www.w3.org/Graphics/SVG/1.1/DTD/svg11.dtd">
<svg version="1.1" xmlns="http://www.w3.org/2000/svg" xmlns:xlink="http://www.w3.org/1999/xlink" preserveAspectRatio="xMidYMid meet" viewBox="196.86550556361883 303.52471203105387 46.39836489202307 46.39836489202315" width="42.4" height="42.4"><defs><path d="M209.79 322.91C209.81 323.26 210.1 323.54 210.46 323.54C210.46 323.54 210.47 323.54 210.48 323.54C210.85 323.53 211.13 323.22 211.12 322.85C211.12 322.85 211.12 322.85 211.12 322.85C211.07 321.9 211.42 320.97 212.09 320.29C212.81 319.54 213.79 319.11 214.82 319.1C215.19 319.1 215.49 318.8 215.49 318.44C215.49 318.07 215.19 317.77 214.82 317.77C213.43 317.79 212.1 318.37 211.14 319.37C210.22 320.31 209.73 321.59 209.79 322.91Z" id="a1yAX9j13l"></path><path d="M213.61 311.05C213.61 310.96 213.6 310.87 213.56 310.79C213.46 310.55 212.64 308.59 212.54 308.34C212.4 308.01 212.01 307.85 211.68 307.99C211.34 308.13 211.18 308.51 211.32 308.85C211.32 308.85 211.32 308.85 211.32 308.85C211.42 309.1 212.24 311.06 212.34 311.3C212.44 311.55 212.68 311.71 212.95 311.71C213.32 311.71 213.61 311.41 213.61 311.05Z" id="am36YqaYs"></path><path d="M229.51 328.75C229.42 328.74 228.96 328.68 228.13 328.57C227.76 327.88 227.56 327.5 227.52 327.42C227.18 326.78 226.38 326.53 225.73 326.87C225.5 327 225.3 327.19 225.18 327.42C225.14 327.5 224.94 327.88 224.58 328.57C223.75 328.68 223.28 328.74 223.19 328.75C222.47 328.85 221.96 329.52 222.06 330.25C222.1 330.55 222.25 330.84 222.48 331.05C222.54 331.1 222.86 331.39 223.43 331.91C223.29 332.63 223.22 333.02 223.21 333.1C223.07 333.82 223.55 334.51 224.27 334.65C224.55 334.7 224.84 334.66 225.09 334.53C225.18 334.49 225.6 334.28 226.35 333.91C227.11 334.28 227.53 334.49 227.61 334.53C228.27 334.85 229.06 334.58 229.38 333.93C229.51 333.67 229.55 333.38 229.5 333.1C229.48 333.02 229.41 332.63 229.28 331.91C229.85 331.39 230.16 331.1 230.23 331.05C230.61 330.7 230.75 330.16 230.6 329.67C230.44 329.18 230.02 328.82 229.51 328.75ZM227.84 331.42L228.19 333.34L226.35 332.44L224.51 333.34L224.86 331.42L223.37 330.07L225.43 329.79L226.35 328.04L227.27 329.79L229.33 330.07L227.84 331.42Z" id="ccQqxZeUn"></path><path d="M219.73 305.19C219.73 304.82 219.43 304.52 219.06 304.52C218.7 304.52 218.4 304.82 218.4 305.19C218.4 305.65 218.4 309.36 218.4 309.82C218.4 310.19 218.7 310.49 219.06 310.49C219.43 310.49 219.73 310.19 219.73 309.82C219.73 308.9 219.73 305.65 219.73 305.19Z" id="eND8LufQ"></path><path d="M218.4 346.26C218.4 346.63 218.7 346.92 219.06 346.92C219.43 346.92 219.73 346.63 219.73 346.26C219.73 345.8 219.73 342.09 219.73 341.62C219.73 341.26 219.43 340.96 219.06 340.96C218.7 340.96 218.4 341.26 218.4 341.62C218.4 342.55 218.4 345.8 218.4 346.26Z" id="b2tzF6nYI"></path><path d="M201.65 319.27C201.9 319.38 203.86 320.18 204.11 320.28C204.45 320.42 204.83 320.26 204.97 319.92C205.11 319.59 204.95 319.2 204.61 319.06C204.37 318.96 202.4 318.15 202.16 318.05C201.82 317.91 201.43 318.07 201.29 318.41C201.29 318.41 201.29 318.41 201.29 318.41C201.15 318.75 201.32 319.14 201.65 319.27Z" id="ab1erYR8A"></path><path d="M234.96 325.06C234.6 325.06 234.3 325.36 234.3 325.72C234.3 326.09 234.6 326.39 234.96 326.39C235.43 326.39 239.14 326.39 239.6 326.39C239.97 326.39 240.26 326.09 240.26 325.72C240.26 325.36 239.97 325.06 239.6 325.06C238.67 325.06 235.43 325.06 234.96 325.06Z" id="e5loYTw4O"></path><path d="M229.84 314.01C229.58 314.27 229.58 314.69 229.84 314.95C230.1 315.21 230.52 315.21 230.78 314.95C230.78 314.95 230.78 314.95 230.78 314.95C231.1 314.62 233.73 312 234.05 311.67C234.31 311.41 234.31 310.99 234.05 310.73C233.79 310.48 233.38 310.48 233.12 310.73C233.12 310.73 230.17 313.69 229.84 314.01Z" id="a1ldjbi5mm"></path><path d="M209.52 328.75C211.48 331.17 214.03 333 216.49 334.77C217.08 335.19 217.69 335.63 218.27 336.06C218.5 336.23 218.78 336.32 219.06 336.32C219.35 336.32 219.63 336.23 219.86 336.06C220.44 335.63 221.05 335.19 221.64 334.77C221.79 334.66 221.95 334.55 222.1 334.44C221.89 333.97 221.82 333.46 221.89 332.95C220.94 333.64 219.99 334.31 219.07 335C219.07 335 219.06 335 219.06 335C216.14 332.82 212.86 330.77 210.55 327.91C209.4 326.5 208.54 324.78 208.47 322.96C208.32 319.15 211.52 316.45 214.82 316.45C216.42 316.45 217.95 317.1 219.06 318.26C219.06 318.26 219.07 318.26 219.07 318.26C220.18 317.1 221.71 316.45 223.31 316.45C226.61 316.45 229.81 319.15 229.66 322.96C229.58 324.23 229.2 325.46 228.53 326.54C228.59 326.63 228.65 326.71 228.7 326.81C228.71 326.84 228.81 327.02 228.98 327.34C229.32 327.39 229.51 327.42 229.55 327.42C230.4 326.1 230.89 324.58 230.98 323.01C231.07 320.98 230.32 318.99 228.9 317.53C227.44 316 225.42 315.14 223.31 315.12C221.78 315.12 220.29 315.61 219.06 316.51C217.83 315.61 216.35 315.12 214.82 315.12C212.71 315.14 210.69 316 209.23 317.53C207.81 318.99 207.06 320.98 207.15 323.01C207.22 324.95 208.04 326.93 209.52 328.75Z" id="e2qinzOV7p"></path><path d="M205.01 340.71C205.34 340.39 207.96 337.76 208.29 337.43C208.55 337.18 208.55 336.76 208.29 336.5C208.03 336.24 207.61 336.24 207.35 336.5C207.03 336.83 204.4 339.45 204.07 339.78C203.82 340.04 203.82 340.46 204.07 340.71C204.2 340.84 204.37 340.91 204.54 340.91C204.72 340.91 204.89 340.84 205.01 340.71Z" id="b3KfjOV7r"></path><path d="M233.12 340.71C233.38 340.97 233.8 340.97 234.05 340.71C234.31 340.45 234.31 340.04 234.05 339.78C233.73 339.45 231.1 336.83 230.78 336.5C230.52 336.24 230.1 336.24 229.84 336.5C229.58 336.76 229.58 337.18 229.84 337.43C230.49 338.09 232.46 340.06 233.12 340.71Z" id="d1Og1qhlZs"></path><path d="M198.53 326.39C198.99 326.39 202.7 326.39 203.17 326.39C203.53 326.39 203.83 326.09 203.83 325.72C203.83 325.36 203.53 325.06 203.17 325.06C202.7 325.06 198.99 325.06 198.53 325.06C198.16 325.06 197.87 325.36 197.87 325.72C197.87 326.09 198.16 326.39 198.53 326.39Z" id="j2OZYJHwOa"></path><path d="M225.73 311.27C225.83 311.03 226.64 309.06 226.74 308.82C226.88 308.48 226.71 308.09 226.37 307.95C226.04 307.82 225.65 307.98 225.51 308.31C225.41 308.56 224.6 310.52 224.5 310.77C224.36 311.11 224.53 311.49 224.86 311.63C224.94 311.67 225.03 311.68 225.12 311.68C225.38 311.68 225.63 311.52 225.73 311.27Z" id="avbfAjWUm"></path><path d="M211.39 342.63C211.25 342.97 211.41 343.36 211.75 343.49C212.09 343.63 212.48 343.47 212.62 343.13C212.62 343.13 212.62 343.13 212.62 343.13C212.72 342.89 213.52 340.93 213.63 340.68C213.76 340.34 213.6 339.95 213.27 339.81C212.93 339.68 212.54 339.84 212.4 340.18C212.4 340.18 212.4 340.18 212.4 340.18C212.4 340.18 211.49 342.38 211.39 342.63Z" id="bV8nn83WN"></path><path d="M236.89 332.79C236.89 332.52 236.72 332.28 236.47 332.17C236.23 332.07 234.27 331.26 234.02 331.16C233.68 331.02 233.29 331.19 233.16 331.52C233.02 331.86 233.18 332.25 233.52 332.39C233.52 332.39 233.52 332.39 233.52 332.39C233.76 332.49 235.73 333.3 235.97 333.4C236.05 333.43 236.14 333.45 236.22 333.45C236.59 333.45 236.89 333.15 236.89 332.79Z" id="bSLXv8JAQ"></path><path d="M205.01 310.73C204.75 310.48 204.33 310.48 204.07 310.74C203.82 310.99 203.82 311.41 204.07 311.67C204.4 312 207.03 314.62 207.35 314.95C207.61 315.21 208.03 315.21 208.29 314.95C208.55 314.69 208.55 314.27 208.29 314.01C207.63 313.36 205.67 311.39 205.01 310.73Z" id="aPe8vSJix"></path><path d="M235.93 317.98C235.69 318.08 233.73 318.9 233.49 319C233.15 319.14 232.99 319.53 233.13 319.86C233.27 320.2 233.66 320.36 234 320.22C234 320.22 234 320.22 234 320.22C234.24 320.12 236.2 319.3 236.44 319.2C236.78 319.06 236.94 318.67 236.8 318.33C236.66 318 236.27 317.84 235.93 317.98Z" id="b1hjkKV77F"></path><path d="M204.13 331.23C203.89 331.33 201.93 332.15 201.68 332.25C201.35 332.39 201.19 332.78 201.33 333.11C201.47 333.45 201.86 333.61 202.19 333.47C202.19 333.47 202.19 333.47 202.19 333.47C202.44 333.37 204.4 332.55 204.64 332.45C204.98 332.31 205.14 331.92 205 331.58C204.86 331.25 204.47 331.09 204.13 331.23Z" id="c7V05H5ThO"></path><path d="M224.57 340.66C224.67 340.9 225.49 342.86 225.59 343.1C225.73 343.44 226.12 343.6 226.45 343.46C226.79 343.32 226.95 342.93 226.81 342.59C226.71 342.35 225.89 340.39 225.79 340.15C225.65 339.81 225.26 339.65 224.92 339.79C224.59 339.93 224.43 340.32 224.57 340.66Z" id="igadoNcap"></path></defs><g><g><use xlink:href="#a1yAX9j13l" opacity="1" fill="#ff3cc1" fill-opacity="1"></use><g><use xlink:href="#a1yAX9j13l" opacity="1" fill-opacity="0" stroke="#000000" stroke-width="1" stroke-opacity="0"></use></g></g><g><use xlink:href="#am36YqaYs" opacity="1" fill="#ff3cc1" fill-opacity="1"></use><g><use xlink:href="#am36YqaYs" opacity="1" fill-opacity="0" stroke="#000000" stroke-width="1" stroke-opacity="0"></use></g></g><g><use xlink:href="#ccQqxZeUn" opacity="1" fill="#ff3cc1" fill-opacity="1"></use><g><use xlink:href="#ccQqxZeUn" opacity="1" fill-opacity="0" stroke="#000000" stroke-width="1" stroke-opacity="0"></use></g></g><g><use xlink:href="#eND8LufQ" opacity="1" fill="#ff3cc1" fill-opacity="1"></use><g><use xlink:href="#eND8LufQ" opacity="1" fill-opacity="0" stroke="#000000" stroke-width="1" stroke-opacity="0"></use></g></g><g><use xlink:href="#b2tzF6nYI" opacity="1" fill="#ff3cc1" fill-opacity="1"></use><g><use xlink:href="#b2tzF6nYI" opacity="1" fill-opacity="0" stroke="#000000" stroke-width="1" stroke-opacity="0"></use></g></g><g><use xlink:href="#ab1erYR8A" opacity="1" fill="#ff3cc1" fill-opacity="1"></use><g><use xlink:href="#ab1erYR8A" opacity="1" fill-opacity="0" stroke="#000000" stroke-width="1" stroke-opacity="0"></use></g></g><g><use xlink:href="#e5loYTw4O" opacity="1" fill="#ff3cc1" fill-opacity="1"></use><g><use xlink:href="#e5loYTw4O" opacity="1" fill-opacity="0" stroke="#000000" stroke-width="1" stroke-opacity="0"></use></g></g><g><use xlink:href="#a1ldjbi5mm" opacity="1" fill="#ff3cc1" fill-opacity="1"></use><g><use xlink:href="#a1ldjbi5mm" opacity="1" fill-opacity="0" stroke="#000000" stroke-width="1" stroke-opacity="0"></use></g></g><g><use xlink:href="#e2qinzOV7p" opacity="1" fill="#ff3cc1" fill-opacity="1"></use><g><use xlink:href="#e2qinzOV7p" opacity="1" fill-opacity="0" stroke="#000000" stroke-width="1" stroke-opacity="0"></use></g></g><g><use xlink:href="#b3KfjOV7r" opacity="1" fill="#ff3cc1" fill-opacity="1"></use><g><use xlink:href="#b3KfjOV7r" opacity="1" fill-opacity="0" stroke="#000000" stroke-width="1" stroke-opacity="0"></use></g></g><g><use xlink:href="#d1Og1qhlZs" opacity="1" fill="#ff3cc1" fill-opacity="1"></use><g><use xlink:href="#d1Og1qhlZs" opacity="1" fill-opacity="0" stroke="#000000" stroke-width="1" stroke-opacity="0"></use></g></g><g><use xlink:href="#j2OZYJHwOa" opacity="1" fill="#ff3cc1" fill-opacity="1"></use><g><use xlink:href="#j2OZYJHwOa" opacity="1" fill-opacity="0" stroke="#000000" stroke-width="1" stroke-opacity="0"></use></g></g><g><use xlink:href="#avbfAjWUm" opacity="1" fill="#ff3cc1" fill-opacity="1"></use><g><use xlink:href="#avbfAjWUm" opacity="1" fill-opacity="0" stroke="#000000" stroke-width="1" stroke-opacity="0"></use></g></g><g><use xlink:href="#bV8nn83WN" opacity="1" fill="#ff3cc1" fill-opacity="1"></use><g><use xlink:href="#bV8nn83WN" opacity="1" fill-opacity="0" stroke="#000000" stroke-width="1" stroke-opacity="0"></use></g></g><g><use xlink:href="#bSLXv8JAQ" opacity="1" fill="#ff3cc1" fill-opacity="1"></use><g><use xlink:href="#bSLXv8JAQ" opacity="1" fill-opacity="0" stroke="#000000" stroke-width="1" stroke-opacity="0"></use></g></g><g><use xlink:href="#aPe8vSJix" opacity="1" fill="#ff3cc1" fill-opacity="1"></use><g><use xlink:href="#aPe8vSJix" opacity="1" fill-opacity="0" stroke="#000000" stroke-width="1" stroke-opacity="0"></use></g></g><g><use xlink:href="#b1hjkKV77F" opacity="1" fill="#ff3cc1" fill-opacity="1"></use><g><use xlink:href="#b1hjkKV77F" opacity="1" fill-opacity="0" stroke="#000000" stroke-width="1" stroke-opacity="0"></use></g></g><g><use xlink:href="#c7V05H5ThO" opacity="1" fill="#ff3cc1" fill-opacity="1"></use><g><use xlink:href="#c7V05H5ThO" opacity="1" fill-opacity="0" stroke="#000000" stroke-width="1" stroke-opacity="0"></use></g></g><g><use xlink:href="#igadoNcap" opacity="1" fill="#ff3cc1" fill-opacity="1"></use><g><use xlink:href="#igadoNcap" opacity="1" fill-opacity="0" stroke="#000000" stroke-width="1" stroke-opacity="0"></use></g></g></g></svg>