<?xml version="1.0" encoding="UTF-8" standalone="no"?>
<!DOCTYPE svg PUBLIC "-//W3C//DTD SVG 1.1//EN" "http://www.w3.org/Graphics/SVG/1.1/DTD/svg11.dtd">
<svg version="1.1" xmlns="http://www.w3.org/2000/svg" xmlns:xlink="http://www.w3.org/1999/xlink" preserveAspectRatio="xMidYMid meet" viewBox="130.47866994478682 581.1270919731616 32.24545223033894 29.356926765661683" width="28.25" height="25.36"><defs><path d="M147.63 590.31C148.25 590.86 149.8 590.25 150.26 590.31C150.89 590.4 151.38 591.64 151.75 591.67C153.84 591.83 152.62 590.4 153.1 589.22C153.41 588.46 155.55 584.33 156.64 584.08C156.95 584 157.14 583.26 157.14 584.08C157.14 585.55 158.63 584.62 158.8 585.24C159.31 587.17 158.79 588.04 157.14 591.03C156.31 592.54 154.34 596.9 152.72 600.59C151.33 603.73 150.12 606.89 147.25 606.89C142.8 606.89 141.78 604.83 139.44 603.65C137.67 602.76 134.57 602.53 133.67 600.88C131.74 597.32 131.48 591.78 131.48 586.84C131.48 583.24 133.53 583.49 134.61 583.22C135.16 583.08 135.82 583.49 136.7 584.08C137.23 584.42 136.64 589.92 137.34 590.31C138.03 590.7 138.65 588.46 139.79 587.5C140.96 586.51 142.65 587.84 143.39 587.9C144.51 587.99 143.71 587.9 146.1 587.9C147.08 587.9 146.91 589.69 147.63 590.31Z" id="c1rvmBtKyA"></path><path d="M158.15 583.98C158.15 583.98 155.7 582.94 154.51 585.26C154.23 585.85 151.99 590.55 151.72 591.13C151.28 590.32 150.46 590 150.46 590C149.8 589.69 149.05 589.66 148.39 589.91C148.39 589.91 148.36 589.91 148.36 589.91C148.36 588.18 146.76 587.55 146.76 587.55C145.82 587.12 144.72 587.24 143.9 587.9C143.9 587.9 143.87 587.9 143.87 587.9C143.5 586.9 142.46 586.43 142.46 586.43C141.08 585.74 139.45 586.33 138.79 587.71C138.71 587.89 138.29 588.75 137.53 590.32C137.52 587.19 137.5 585.45 137.5 585.11C137.5 583.48 136.15 582.13 134.52 582.13C134.51 582.13 134.44 582.13 134.43 582.13C132.83 582.19 131.48 583.54 131.48 585.17C131.48 586.45 131.48 596.66 131.48 597.94C131.48 597.94 131.48 601.14 134.65 602.46C134.65 602.46 134.65 602.46 134.65 602.46C140.5 605.17 143.75 606.68 144.41 606.98C147.1 608.26 150.4 607.01 151.65 604.31C151.95 603.68 153.42 600.52 156.08 594.83L156.08 594.83C158.09 590.5 159.21 588.1 159.43 587.62C159.78 586.93 159.81 586.21 159.56 585.52C159.31 584.83 159.81 586.21 159.56 585.52C159.31 584.83 158.81 584.26 158.15 583.98ZM150.77 593.2C150.51 593.77 148.4 598.34 148.14 598.91C147.35 600.39 145.97 599.7 145.97 599.7C145.19 599.32 144.81 598.35 145.19 597.56C145.46 596.99 147.59 592.42 147.86 591.85C148.61 590.41 149.99 591.07 149.99 591.07C150.77 591.45 151.15 592.39 150.77 593.2ZM147.1 590.76C146.71 591.6 143.55 598.38 143.15 599.23C142.37 600.64 140.99 599.98 140.99 599.98C140.2 599.6 139.82 598.66 140.2 597.85C140.6 597 143.76 590.22 144.15 589.37C144.91 587.9 146.32 588.62 146.32 588.62C147.1 589 147.48 589.94 147.1 590.76ZM141.99 587.46C142.81 587.84 143.15 588.78 142.77 589.59C142.74 589.67 142.57 590.02 142.27 590.66C140.86 593.67 140.08 595.35 139.92 595.68C139.2 597.19 137.75 596.43 137.75 596.43C136.94 596.06 136.59 595.09 136.97 594.3C137.16 593.9 138.11 591.88 139.82 588.25C140.98 587.83 141.7 587.57 141.99 587.46ZM150.62 603.87C150.62 603.87 150.62 603.87 150.62 603.87C149.61 606 147.01 606.98 144.84 605.97C143.87 605.52 136.09 601.88 135.12 601.42C133.83 600.73 132.86 599.57 132.67 598.1C132.67 598.1 132.67 598.1 132.67 598.1C132.63 590.34 132.61 586.03 132.61 585.17C132.61 584.17 133.42 583.32 134.46 583.29C134.47 583.29 134.54 583.29 134.55 583.29C135.56 583.29 136.44 584.14 136.44 585.14C136.44 585.65 136.45 588.2 136.47 592.79C136.18 593.4 136.03 593.73 136 593.8C135.37 595.15 135.97 596.78 137.31 597.44C137.31 597.44 138.22 597.81 139.07 597.63C139.07 597.63 138.6 599.67 140.45 600.83C140.45 600.83 142.84 602.02 144.15 599.67C144.16 599.65 144.24 599.52 144.25 599.51C144.25 599.51 144.91 600.45 145.5 600.64C145.5 600.64 148.04 601.61 149.21 599.35C149.84 597.99 154.94 587.13 155.57 585.77C155.95 584.98 156.89 584.64 157.71 585.01C157.77 585.04 159.03 585.67 158.46 587.12C157.42 589.35 154.8 594.93 150.62 603.87Z" id="beHPmroPV"></path></defs><g><g><use xlink:href="#c1rvmBtKyA" opacity="1" fill="#e6ae25" fill-opacity="1"></use></g><g><use xlink:href="#beHPmroPV" opacity="1" fill="#a4821e" fill-opacity="1"></use><g><use xlink:href="#beHPmroPV" opacity="1" fill-opacity="0" stroke="#000000" stroke-width="0" stroke-opacity="0"></use></g></g></g></svg>