<?xml version="1.0" encoding="UTF-8" standalone="no"?>
<!DOCTYPE svg PUBLIC "-//W3C//DTD SVG 1.1//EN" "http://www.w3.org/Graphics/SVG/1.1/DTD/svg11.dtd">
<svg version="1.1" xmlns="http://www.w3.org/2000/svg" xmlns:xlink="http://www.w3.org/1999/xlink" preserveAspectRatio="xMidYMid meet" viewBox="150.8381323114413 510.86388075611023 32.245452230338856 28.903073716415406" width="28.25" height="24.9"><defs><path d="M160.45 532.58C160.69 532.58 160.92 532.67 161.11 532.86C161.42 533.17 163.91 535.66 164.22 535.97C164.74 536.48 165.44 536.77 166.2 536.77C166.95 536.77 167.66 536.48 168.17 535.97C168.48 535.66 170.97 533.17 171.28 532.86C171.47 532.67 171.7 532.58 171.94 532.58C172.48 532.58 176.77 532.58 177.31 532.58C178.86 532.58 180.08 531.31 180.08 529.8C180.08 529.04 180.08 522.98 180.08 522.22C180.08 521.7 179.66 521.28 179.14 521.28C178.62 521.28 178.2 521.7 178.2 522.22C178.2 522.98 178.2 529.04 178.2 529.8C178.2 530.32 177.78 530.69 177.31 530.69C176.76 530.69 172.43 530.69 171.89 530.69C171.14 530.69 170.43 530.98 169.92 531.49C169.6 531.81 167.12 534.29 166.81 534.6C166.48 534.93 165.87 534.93 165.54 534.6C165.23 534.29 162.74 531.81 162.43 531.49C161.91 530.98 161.25 530.69 160.5 530.69C159.91 530.69 155.2 530.69 154.62 530.69C154.1 530.69 153.72 530.27 153.72 529.8C153.72 528.28 153.72 516.16 153.72 514.64C153.72 514.12 154.14 513.75 154.62 513.75C156.88 513.75 174.99 513.75 177.26 513.75C177.78 513.75 178.15 514.17 178.15 514.64C178.15 515.02 178.15 518.07 178.15 518.45C178.15 518.97 178.58 519.4 179.09 519.4C179.61 519.4 180.04 518.97 180.04 518.45C180.04 518.07 180.04 515.02 180.04 514.64C180.04 513.09 178.77 511.86 177.26 511.86C174.99 511.86 156.88 511.86 154.62 511.86C153.06 511.86 151.84 513.13 151.84 514.64C151.84 516.15 151.84 528.24 151.84 529.75C151.84 531.31 153.11 532.58 154.62 532.58C155.78 532.58 159.87 532.58 160.45 532.58Z" id="b2SxV671V"></path></defs><g><g><use xlink:href="#b2SxV671V" opacity="1" fill="#a7a7a7" fill-opacity="1"></use><g><use xlink:href="#b2SxV671V" opacity="1" fill-opacity="0" stroke="#000000" stroke-width="1" stroke-opacity="0"></use></g></g></g></svg>