<?xml version="1.0" encoding="UTF-8" standalone="no"?>
<!DOCTYPE svg PUBLIC "-//W3C//DTD SVG 1.1//EN" "http://www.w3.org/Graphics/SVG/1.1/DTD/svg11.dtd">
<svg version="1.1" xmlns="http://www.w3.org/2000/svg" xmlns:xlink="http://www.w3.org/1999/xlink" preserveAspectRatio="xMidYMid meet" viewBox="188.8099327908128 535.4533170891432 35.4219497083686 36.40242698196937" width="31.42" height="32.4"><defs><path d="M189.81 550.02C189.81 556.27 194.71 561.66 201.7 563.18C201.99 563.46 202.56 564.69 202.89 565.46C203.7 567.34 204.36 568.86 205.54 568.86C206.77 568.86 207.46 567.26 208.28 565.46C208.65 564.69 209.22 563.42 209.5 563.18C216.41 561.62 221.23 556.23 221.23 550.06C221.27 542.54 214.2 536.45 205.54 536.45C196.88 536.45 189.81 542.54 189.81 550.02ZM206.81 564.77C206.48 565.51 205.91 566.73 205.58 567.14C205.26 566.73 204.72 565.55 204.4 564.81C203.58 562.89 203.05 561.79 202.15 561.58C195.82 560.32 191.44 555.54 191.44 550.06C191.44 543.44 197.78 538.09 205.54 538.09C213.3 538.09 219.64 543.44 219.64 550.02C219.64 555.45 215.31 560.23 209.14 561.58C208.2 561.79 207.67 562.93 206.81 564.77Z" id="a3ssaDQULR"></path></defs><g><g><use xlink:href="#a3ssaDQULR" opacity="1" fill="#a7a7a7" fill-opacity="1"></use><g><use xlink:href="#a3ssaDQULR" opacity="1" fill-opacity="0" stroke="#000000" stroke-width="1" stroke-opacity="0"></use></g></g></g></svg>