<?xml version="1.0" encoding="UTF-8" standalone="no"?>
<!DOCTYPE svg PUBLIC "-//W3C//DTD SVG 1.1//EN" "http://www.w3.org/Graphics/SVG/1.1/DTD/svg11.dtd">
<svg version="1.1" xmlns="http://www.w3.org/2000/svg" xmlns:xlink="http://www.w3.org/1999/xlink" preserveAspectRatio="xMidYMid meet" viewBox="346.03393510970875 215.9617476476502 30.948023864232937 37.273253575402464" width="26.95" height="33.27"><defs><path d="M360.51 229.43C365.03 229.43 368.85 232.77 369.46 237.25C369.81 239.85 369.82 239.9 370.17 242.52C370.72 246.6 367.55 250.24 363.43 250.24C360.74 250.24 360.45 250.24 357.75 250.24C353.62 250.24 350.43 246.61 350.95 242.51C351.28 239.89 351.29 239.86 351.62 237.26C352.19 232.79 356 229.43 360.51 229.43C362.09 229.43 358.93 229.43 360.51 229.43Z" id="b1Fw2bTeFZ"></path><path d="M347.19 242.17C346.2 236.67 350.3 233.18 350.3 227.28C351.57 228.54 352.2 230.51 352.2 232.36C355.77 228.75 357.55 223.62 357.55 216.96C362.5 219.61 365.62 223.77 366.9 229.43C367.61 228.15 367.75 226.42 367.29 224.24C373.62 226.66 379.19 244.84 365.6 249.68C367.94 241.62 366.29 235.55 360.65 231.47C361.38 234.87 360.69 238.14 358.6 241.27C358.44 238.81 358 236.9 357.29 235.54C357.29 237.13 356.66 238.71 355.41 240.29C355.25 240.49 355.09 240.68 354.93 240.88C354.93 240.88 354.93 240.88 354.93 240.88C352.91 243.43 352.79 247 354.63 249.68C350.32 248.29 347.84 245.79 347.19 242.17Z" id="a4IyzcqvkE"></path></defs><g><g><use xlink:href="#b1Fw2bTeFZ" opacity="1" fill="#ffec36" fill-opacity="1"></use></g><g><use xlink:href="#a4IyzcqvkE" opacity="1" fill="#ff7a29" fill-opacity="1"></use><g><use xlink:href="#a4IyzcqvkE" opacity="1" fill-opacity="0" stroke="#000000" stroke-width="1" stroke-opacity="0"></use></g></g></g></svg>