<?xml version="1.0" encoding="UTF-8" standalone="no"?>
<!DOCTYPE svg PUBLIC "-//W3C//DTD SVG 1.1//EN" "http://www.w3.org/Graphics/SVG/1.1/DTD/svg11.dtd">
<svg version="1.1" xmlns="http://www.w3.org/2000/svg" xmlns:xlink="http://www.w3.org/1999/xlink" preserveAspectRatio="xMidYMid meet" viewBox="161.4424685407706 138.04842105263157 341.13192446683274 341.13192446683274" width="337.13" height="337.13"><defs><path d="M489.43 307.61C489.43 395.05 418.44 466.04 331.01 466.04C243.57 466.04 172.59 395.05 172.59 307.61C172.59 220.18 243.57 149.19 331.01 149.19C418.44 149.19 489.43 220.18 489.43 307.61Z" id="i7hu2oD086"></path><path d="M162.44 307.61C162.44 400.71 237.91 476.18 331.01 476.18C424.1 476.18 499.57 400.71 499.57 307.61C499.57 214.52 424.1 139.05 331.01 139.05C331.01 139.05 331.01 139.05 331.01 139.05C237.91 139.05 162.44 214.52 162.44 307.61ZM431.35 187.73L448.24 227.14L431.35 231L418 197.22L366.22 183.54L348.67 162.01L431.35 187.73ZM227.57 376.61L197.66 337.53L220.62 293.37L249.32 329.03L256.72 381.47L227.57 376.61ZM308.93 424.85L295.9 411.82L313.57 400.78L331.01 418L308.93 424.85ZM310.7 381.69C310.7 381.69 299.66 351 301.53 348.57C303.41 346.14 319.97 310.37 319.97 310.37C318.74 307.56 312.6 293.51 301.53 268.21L260.91 250.54L249.32 223.06L284.53 187.84C345.2 203.47 378.91 212.16 385.65 213.89C385.65 213.89 423.18 265.22 423.18 269.86C418.92 294.48 413.02 318.78 405.52 342.61C402.43 345.7 358.05 381.69 358.05 381.69C348.58 381.69 320.17 381.69 310.7 381.69ZM414.68 420.32L384.66 420.32L379.25 398.24L427.49 381.8L432.9 343.05L456.63 388.97L414.68 420.32Z" id="b3dSF4ha"></path></defs><g><g><use xlink:href="#i7hu2oD086" opacity="1" fill="#39b672" fill-opacity="1"></use></g><g><use xlink:href="#b3dSF4ha" opacity="1" fill="#437fc7" fill-opacity="1"></use><g><use xlink:href="#b3dSF4ha" opacity="1" fill-opacity="0" stroke="#000000" stroke-width="1" stroke-opacity="0"></use></g></g></g></svg>