<?xml version="1.0" encoding="UTF-8" standalone="no"?>
<!DOCTYPE svg PUBLIC "-//W3C//DTD SVG 1.1//EN" "http://www.w3.org/Graphics/SVG/1.1/DTD/svg11.dtd">
<svg version="1.1" xmlns="http://www.w3.org/2000/svg" xmlns:xlink="http://www.w3.org/1999/xlink" preserveAspectRatio="xMidYMid meet" viewBox="111.18405003295558 542.4988173054505 32.245452230338884 29.356926765661797" width="28.25" height="25.36"><defs><path d="M138.85 545.35C138.85 545.35 136.41 544.31 135.21 546.64C134.93 547.22 132.7 551.92 132.42 552.5C131.98 551.69 131.17 551.37 131.17 551.37C130.51 551.06 129.75 551.03 129.1 551.28C129.09 551.28 129.07 551.28 129.06 551.28C129.06 549.55 127.46 548.93 127.46 548.93C126.52 548.49 125.42 548.61 124.61 549.27C124.61 549.27 124.58 549.27 124.58 549.27C124.2 548.27 123.17 547.8 123.17 547.8C121.78 547.11 120.15 547.7 119.49 549.08C119.41 549.26 118.99 550.13 118.24 551.69C118.22 548.56 118.21 546.83 118.21 546.48C118.21 544.85 116.86 543.5 115.23 543.5C115.22 543.5 115.14 543.5 115.13 543.5C113.53 543.56 112.18 544.91 112.18 546.54C112.18 547.82 112.18 558.03 112.18 559.31C112.18 559.31 112.18 562.51 115.35 563.83C115.35 563.83 115.35 563.83 115.35 563.83C121.21 566.54 124.46 568.05 125.11 568.35C127.81 569.63 131.1 568.38 132.36 565.68C132.65 565.05 134.13 561.89 136.78 556.21L136.78 556.21C138.8 551.88 139.92 549.47 140.14 548.99C140.48 548.3 140.52 547.58 140.26 546.89C140.01 546.2 140.52 547.58 140.26 546.89C140.01 546.2 139.51 545.63 138.85 545.35ZM131.48 554.57C131.22 555.15 129.11 559.71 128.84 560.28C128.06 561.76 126.68 561.07 126.68 561.07C125.89 560.69 125.52 559.72 125.89 558.94C126.16 558.36 128.3 553.8 128.56 553.23C129.31 551.78 130.7 552.44 130.7 552.44C131.48 552.82 131.86 553.76 131.48 554.57ZM127.81 552.13C127.41 552.97 124.25 559.75 123.86 560.6C123.07 562.01 121.69 561.35 121.69 561.35C120.91 560.97 120.53 560.03 120.91 559.22C121.3 558.37 124.46 551.59 124.86 550.75C125.61 549.27 127.02 549.99 127.02 549.99C127.81 550.37 128.19 551.31 127.81 552.13ZM122.69 548.83C123.51 549.21 123.86 550.15 123.48 550.97C123.45 551.04 123.28 551.39 122.98 552.03C121.57 555.04 120.78 556.72 120.62 557.05C119.9 558.56 118.46 557.81 118.46 557.81C117.64 557.43 117.3 556.46 117.67 555.67C117.87 555.27 118.82 553.25 120.53 549.62C121.68 549.2 122.41 548.94 122.69 548.83ZM131.32 565.24C131.32 565.24 131.32 565.24 131.32 565.24C130.32 567.38 127.71 568.35 125.55 567.34C124.58 566.89 116.8 563.25 115.82 562.79C114.54 562.1 113.56 560.94 113.38 559.47C113.38 559.47 113.38 559.47 113.38 559.47C113.34 551.71 113.32 547.4 113.31 546.54C113.31 545.54 114.13 544.69 115.16 544.66C115.17 544.66 115.25 544.66 115.26 544.66C116.26 544.66 117.14 545.51 117.14 546.51C117.14 547.02 117.15 549.57 117.17 554.17C116.89 554.77 116.73 555.1 116.7 555.17C116.07 556.52 116.67 558.15 118.02 558.81C118.02 558.81 118.93 559.19 119.78 559C119.78 559 119.31 561.04 121.16 562.2C121.16 562.2 123.54 563.39 124.86 561.04C124.87 561.02 124.94 560.9 124.95 560.88C124.95 560.88 125.61 561.82 126.21 562.01C126.21 562.01 128.75 562.98 129.91 560.72C130.55 559.37 135.64 548.5 136.28 547.14C136.66 546.35 137.6 546.01 138.41 546.39C138.48 546.42 139.73 547.04 139.17 548.49C138.12 550.72 135.51 556.31 131.32 565.24Z" id="b1zIKsgO8K"></path></defs><g><g><use xlink:href="#b1zIKsgO8K" opacity="1" fill="#a7a7a7" fill-opacity="1"></use><g><use xlink:href="#b1zIKsgO8K" opacity="1" fill-opacity="0" stroke="#000000" stroke-width="1" stroke-opacity="0"></use></g></g></g></svg>